<?xml version="1.0" encoding="utf-8"?>
<!-- Generator: Adobe Illustrator 18.1.1, SVG Export Plug-In . SVG Version: 6.00 Build 0)  -->
<svg version="1.1" baseProfile="basic" id="Schematic" xmlns:svg="http://www.w3.org/2000/svg"
	 xmlns="http://www.w3.org/2000/svg" xmlns:xlink="http://www.w3.org/1999/xlink" x="0px" y="0px" viewBox="0.7 0 43.2 152.5"
	 xml:space="preserve">
<g>
	<rect x="8.2" y="7.3" fill="none" stroke="#000000" stroke-width="0.7" stroke-linecap="round" width="28.1" height="138.2"/>
	
		<line id="connector18" fill="#555555" stroke="#787878" stroke-width="0.7" stroke-linecap="round" x1="36.7" y1="77.6" x2="43.9" y2="77.6"/>
	<text transform="matrix(1 0 0 1 38.7414 76.7325)" fill="#555555" font-family="'DroidSans'" font-size="2.5">32</text>
	<text transform="matrix(1 0 0 1 28.2254 75.1426)" fill="#555555" font-family="'DroidSans'" font-size="3.5">PB5</text>
	
		<line id="connector17" fill="#555555" stroke="#787878" stroke-width="0.7" stroke-linecap="round" x1="36.7" y1="83.4" x2="43.9" y2="83.4"/>
	<text transform="matrix(1 0 0 1 38.7414 82.5342)" fill="#555555" font-family="'DroidSans'" font-size="2.5">30</text>
	<text transform="matrix(1 0 0 1 28.2254 80.9443)" fill="#555555" font-family="'DroidSans'" font-size="3.5">PF1</text>
	
		<line id="connector16" fill="#555555" stroke="#787878" stroke-width="0.7" stroke-linecap="round" x1="36.7" y1="89.2" x2="43.9" y2="89.2"/>
	<text transform="matrix(1 0 0 1 38.7414 88.3359)" fill="#555555" font-family="'DroidSans'" font-size="2.5">29</text>
	<text transform="matrix(1 0 0 1 28.2254 86.7461)" fill="#555555" font-family="'DroidSans'" font-size="3.5">PE3</text>
	
		<line id="connector15" fill="#555555" stroke="#787878" stroke-width="0.7" stroke-linecap="round" x1="36.7" y1="95" x2="43.9" y2="95"/>
	<text transform="matrix(1 0 0 1 38.7414 94.1387)" fill="#555555" font-family="'DroidSans'" font-size="2.5">28</text>
	<text transform="matrix(1 0 0 1 28.2254 92.5489)" fill="#555555" font-family="'DroidSans'" font-size="3.5">PE2</text>
	
		<line id="connector14" fill="#555555" stroke="#787878" stroke-width="0.7" stroke-linecap="round" x1="36.7" y1="100.8" x2="43.9" y2="100.8"/>
	<text transform="matrix(1 0 0 1 38.7414 99.9394)" fill="#555555" font-family="'DroidSans'" font-size="2.5">27</text>
	<text transform="matrix(1 0 0 1 28.2254 98.3496)" fill="#555555" font-family="'DroidSans'" font-size="3.5">PE1</text>
	
		<line id="connector13" fill="#555555" stroke="#787878" stroke-width="0.7" stroke-linecap="round" x1="36.7" y1="106.6" x2="43.9" y2="106.6"/>
	<text transform="matrix(1 0 0 1 38.7414 105.7422)" fill="#555555" font-family="'DroidSans'" font-size="2.5">26</text>
	<text transform="matrix(1 0 0 1 28.2254 104.1514)" fill="#555555" font-family="'DroidSans'" font-size="3.5">PD3</text>
	
		<line id="connector12" fill="#555555" stroke="#787878" stroke-width="0.7" stroke-linecap="round" x1="36.7" y1="112.4" x2="43.9" y2="112.4"/>
	<text transform="matrix(1 0 0 1 38.7414 111.5439)" fill="#555555" font-family="'DroidSans'" font-size="2.5">25</text>
	<text transform="matrix(1 0 0 1 28.2254 109.9541)" fill="#555555" font-family="'DroidSans'" font-size="3.5">PD2</text>
	
		<line id="connector11" fill="#555555" stroke="#787878" stroke-width="0.7" stroke-linecap="round" x1="36.7" y1="118.2" x2="43.9" y2="118.2"/>
	<text transform="matrix(1 0 0 1 38.7414 117.3456)" fill="#555555" font-family="'DroidSans'" font-size="2.5">24</text>
	<text transform="matrix(1 0 0 1 28.2254 115.7558)" fill="#555555" font-family="'DroidSans'" font-size="3.5">PD1</text>
	
		<line id="connector10" fill="#555555" stroke="#787878" stroke-width="0.7" stroke-linecap="round" x1="36.7" y1="124" x2="43.9" y2="124"/>
	<text transform="matrix(1 0 0 1 38.8162 123.1485)" fill="#555555" font-family="'DroidSans'" font-size="2.5">23</text>
	<text transform="matrix(1 0 0 1 28.4343 121.5586)" fill="#555555" font-family="'DroidSans'" font-size="3.5">PD0</text>
	
		<line id="connector17_1_" fill="#555555" stroke="#787878" stroke-width="0.7" stroke-linecap="round" x1="36.7" y1="31.7" x2="43.9" y2="31.7"/>
	<text transform="matrix(1 0 0 1 38.741 30.8212)" fill="#555555" font-family="'DroidSans'" font-size="2.5">40</text>
	<text transform="matrix(1 0 0 1 28.2248 29.2314)" fill="#555555" font-family="'DroidSans'" font-size="3.5">PA7</text>
	
		<line id="connector16_1_" fill="#555555" stroke="#787878" stroke-width="0.7" stroke-linecap="round" x1="36.7" y1="37.5" x2="43.9" y2="37.5"/>
	<text transform="matrix(1 0 0 1 38.741 36.6236)" fill="#555555" font-family="'DroidSans'" font-size="2.5">39</text>
	<text transform="matrix(1 0 0 1 28.2248 35.0337)" fill="#555555" font-family="'DroidSans'" font-size="3.5">PA6</text>
	
		<line id="connector15_1_" fill="#555555" stroke="#787878" stroke-width="0.7" stroke-linecap="round" x1="36.7" y1="43.3" x2="43.9" y2="43.3"/>
	<text transform="matrix(1 0 0 1 38.741 42.4258)" fill="#555555" font-family="'DroidSans'" font-size="2.5">38</text>
	<text transform="matrix(1 0 0 1 28.2248 40.8359)" fill="#555555" font-family="'DroidSans'" font-size="3.5">PA5</text>
	
		<line id="connector14_1_" fill="#555555" stroke="#787878" stroke-width="0.7" stroke-linecap="round" x1="36.7" y1="49.1" x2="43.9" y2="49.1"/>
	<text transform="matrix(1 0 0 1 38.741 48.2271)" fill="#555555" font-family="'DroidSans'" font-size="2.5">37</text>
	<text transform="matrix(1 0 0 1 28.2248 46.6367)" fill="#555555" font-family="'DroidSans'" font-size="3.5">PB4</text>
	
		<line id="connector13_1_" fill="#555555" stroke="#787878" stroke-width="0.7" stroke-linecap="round" x1="36.7" y1="54.9" x2="43.9" y2="54.9"/>
	<text transform="matrix(1 0 0 1 38.741 54.0288)" fill="#555555" font-family="'DroidSans'" font-size="2.5">36</text>
	<text transform="matrix(1 0 0 1 28.2248 52.4389)" fill="#555555" font-family="'DroidSans'" font-size="3.5">PE5</text>
	
		<line id="connector12_1_" fill="#555555" stroke="#787878" stroke-width="0.7" stroke-linecap="round" x1="36.7" y1="60.7" x2="43.9" y2="60.7"/>
	<text transform="matrix(1 0 0 1 38.741 59.8311)" fill="#555555" font-family="'DroidSans'" font-size="2.5">35</text>
	<text transform="matrix(1 0 0 1 28.2248 58.2407)" fill="#555555" font-family="'DroidSans'" font-size="3.5">PE4</text>
	
		<line id="connector11_1_" fill="#555555" stroke="#787878" stroke-width="0.7" stroke-linecap="round" x1="36.7" y1="66.5" x2="43.9" y2="66.5"/>
	<text transform="matrix(1 0 0 1 38.741 65.6328)" fill="#555555" font-family="'DroidSans'" font-size="2.5">34</text>
	<text transform="matrix(1 0 0 1 28.2248 64.043)" fill="#555555" font-family="'DroidSans'" font-size="3.5">PD1</text>
	
		<line id="connector10_1_" fill="#555555" stroke="#787878" stroke-width="0.7" stroke-linecap="round" x1="36.7" y1="72.3" x2="43.9" y2="72.3"/>
	<text transform="matrix(1 0 0 1 38.8162 71.4355)" fill="#555555" font-family="'DroidSans'" font-size="2.5">33</text>
	<text transform="matrix(1 0 0 1 28.4343 69.8457)" fill="#555555" font-family="'DroidSans'" font-size="3.5">PB0</text>
	
		<line id="connector8" fill="#555555" stroke="#787878" stroke-width="0.7" stroke-linecap="round" x1="0.8" y1="77.6" x2="8" y2="77.6"/>
	<text transform="matrix(1 0 0 1 3.45 76.7325)" fill="#555555" font-family="'DroidSans'" font-size="2.5">10</text>
	<text transform="matrix(1 0 0 1 8.9402 75.1426)" fill="#555555" font-family="'DroidSans'" font-size="3.5">PA2</text>
	
		<line id="connector7" fill="#555555" stroke="#787878" stroke-width="0.7" stroke-linecap="round" x1="0.8" y1="83.4" x2="8" y2="83.4"/>
	<text transform="matrix(1 0 0 1 3.45 82.5342)" fill="#555555" font-family="'DroidSans'" font-size="2.5">9</text>
	<text transform="matrix(1 0 0 1 8.9402 80.9443)" fill="#555555" font-family="'DroidSans'" font-size="3.5">PA3</text>
	
		<line id="connector6" fill="#555555" stroke="#787878" stroke-width="0.7" stroke-linecap="round" x1="0.8" y1="89.2" x2="8" y2="89.2"/>
	<text transform="matrix(1 0 0 1 3.45 88.3359)" fill="#555555" font-family="'DroidSans'" font-size="2.5">8</text>
	<text transform="matrix(1 0 0 1 8.9402 86.7461)" fill="#555555" font-family="'DroidSans'" font-size="3.5">PA4</text>
	
		<line id="connector5" fill="#555555" stroke="#787878" stroke-width="0.7" stroke-linecap="round" x1="0.8" y1="95" x2="8" y2="95"/>
	<text transform="matrix(1 0 0 1 3.45 94.1387)" fill="#555555" font-family="'DroidSans'" font-size="2.5">7</text>
	<text transform="matrix(1 0 0 1 8.9402 92.5489)" fill="#555555" font-family="'DroidSans'" font-size="3.5">PB6</text>
	
		<line id="connector4" fill="#555555" stroke="#787878" stroke-width="0.7" stroke-linecap="round" x1="0.8" y1="100.8" x2="8" y2="100.8"/>
	<text transform="matrix(1 0 0 1 3.45 99.9394)" fill="#555555" font-family="'DroidSans'" font-size="2.5">6</text>
	<text transform="matrix(1 0 0 1 8.9402 98.3496)" fill="#555555" font-family="'DroidSans'" font-size="3.5">PB7</text>
	
		<line id="connector3" fill="#555555" stroke="#787878" stroke-width="0.7" stroke-linecap="round" x1="0.8" y1="106.6" x2="8" y2="106.6"/>
	<text transform="matrix(1 0 0 1 3.45 105.7422)" fill="#555555" font-family="'DroidSans'" font-size="2.5">5</text>
	<text transform="matrix(1 0 0 1 8.9402 104.1514)" fill="#555555" font-family="'DroidSans'" font-size="3.5">RST</text>
	
		<line id="connector2" fill="#555555" stroke="#787878" stroke-width="0.7" stroke-linecap="round" x1="0.8" y1="112.4" x2="8" y2="112.4"/>
	<text transform="matrix(1 0 0 1 3.45 111.5439)" fill="#555555" font-family="'DroidSans'" font-size="2.5">4</text>
	<text transform="matrix(1 0 0 1 8.9402 109.9541)" fill="#555555" font-family="'DroidSans'" font-size="3.5">PF0</text>
	
		<line id="connector1" fill="#555555" stroke="#787878" stroke-width="0.7" stroke-linecap="round" x1="0.8" y1="118.2" x2="8" y2="118.2"/>
	<text transform="matrix(1 0 0 1 3.45 117.3456)" fill="#555555" font-family="'DroidSans'" font-size="2.5">3</text>
	<text transform="matrix(1 0 0 1 8.9402 115.7558)" fill="#555555" font-family="'DroidSans'" font-size="3.5">PE0</text>
	
		<line id="connector0" fill="#555555" stroke="#787878" stroke-width="0.7" stroke-linecap="round" x1="0.8" y1="124" x2="8" y2="124"/>
	<text transform="matrix(1 0 0 1 3.45 123.1485)" fill="#555555" font-family="'DroidSans'" font-size="2.5">2</text>
	<text transform="matrix(1 0 0 1 8.9402 121.5586)" fill="#555555" font-family="'DroidSans'" font-size="3.5">PB2</text>
	
		<line id="connector19" fill="#555555" stroke="#787878" stroke-width="0.7" stroke-linecap="round" x1="25.5" y1="145.6" x2="25.5" y2="152.5"/>
	<g transform="translate(12.3296,37.9765)">
		<g transform="rotate(270)">
			<text transform="matrix(1 0 0 1 -112.0939 12.1765)" fill="#555555" font-family="'DroidSans'" font-size="2.5">22</text>
		</g>
	</g>
	<g transform="translate(12.3296,37.9765)">
		<g transform="rotate(270)">
			<text transform="matrix(1 0 0 1 32.5989 7.8581)" fill="#555555" font-family="'DroidSans'" font-size="2.5">31</text>
		</g>
	</g>
	
		<line id="connector19_1_" fill="#555555" stroke="#787878" stroke-width="0.7" stroke-linecap="round" x1="18.1" y1="145.6" x2="18.1" y2="152.5"/>
	<g transform="translate(12.3296,37.9765)">
		<g transform="rotate(270)">
			<text transform="matrix(1 0 0 1 -111.0939 4.9241)" fill="#555555" font-family="'DroidSans'" font-size="2.5">1</text>
		</g>
	</g>
	<g transform="translate(12.9469,34.9426)">
		<g transform="rotate(270)">
			<text transform="matrix(1 0 0 1 -109.2438 6.7164)" fill="#555555" font-family="'DroidSans'" font-size="3.5">GND</text>
		</g>
	</g>
	<g transform="translate(12.9469,34.9426)">
		<g transform="rotate(270)">
			<text transform="matrix(1 0 0 1 -109.2438 13.5401)" fill="#555555" font-family="'DroidSans'" font-size="3.5">GND</text>
		</g>
	</g>
	
		<line id="connector9" fill="#555555" stroke="#787878" stroke-width="0.7" stroke-linecap="round" x1="21.1" y1="0" x2="21.1" y2="7.2"/>
	
		<line id="connector9_1_" fill="#555555" stroke="#787878" stroke-width="0.7" stroke-linecap="round" x1="28.4" y1="0" x2="28.4" y2="7.2"/>
	<g transform="translate(12.3296,2.66347)">
		<g transform="rotate(270)">
			<text transform="matrix(1 0 0 1 -3.0374 15.1106)" fill="#555555" font-family="'DroidSans'" font-size="2.5">21</text>
		</g>
	</g>
	<g transform="translate(12.9469,5.69736)">
		<g transform="rotate(270)">
			<text transform="matrix(1 0 0 1 -11.0475 8.6505)" fill="#555555" font-family="'DroidSans'" font-size="3.5">3.3V</text>
		</g>
	</g>
	<g transform="translate(12.9469,5.69736)">
		<g transform="rotate(270)">
			<text transform="matrix(1 0 0 1 -12.6585 15.1715)" fill="#555555" font-family="'DroidSans'" font-size="3.5">VBUS</text>
		</g>
	</g>
	<text id="label" transform="matrix(1 0 0 1 19.1875 128.6235)" font-family="'ArialMT'" font-size="4.25">TI</text>
	<text id="label_1_" transform="matrix(1 0 0 1 12.2349 132.2768)" font-family="'ArialMT'" font-size="4.25">Launchpad</text>
	<text id="label_2_" transform="matrix(1 0 0 1 10.2457 135.9301)" font-family="'DroidSans'" font-size="4.25">TM4C123GXL</text>
	
		<line id="connector8_1_" fill="#555555" stroke="#787878" stroke-width="0.7" stroke-linecap="round" x1="0.8" y1="26" x2="8" y2="26"/>
	<text transform="matrix(1 0 0 1 3.7322 25.1597)" fill="#555555" font-family="'DroidSans'" font-size="2.5">19</text>
	<text transform="matrix(1 0 0 1 9.2224 23.5698)" fill="#555555" font-family="'DroidSans'" font-size="3.5">PD7</text>
	
		<line id="connector8_2_" fill="#555555" stroke="#787878" stroke-width="0.7" stroke-linecap="round" x1="0.8" y1="20.6" x2="8" y2="20.6"/>
	<text transform="matrix(1 0 0 1 3.7322 19.747)" fill="#555555" font-family="'DroidSans'" font-size="2.5">20</text>
	<text transform="matrix(1 0 0 1 9.2224 18.1572)" fill="#555555" font-family="'DroidSans'" font-size="3.5">PF4</text>
	
		<line id="connector7_1_" fill="#555555" stroke="#787878" stroke-width="0.7" stroke-linecap="round" x1="0.8" y1="31.8" x2="8" y2="31.8"/>
	<text transform="matrix(1 0 0 1 3.7322 30.9619)" fill="#555555" font-family="'DroidSans'" font-size="2.5">18</text>
	<text transform="matrix(1 0 0 1 9.2224 29.372)" fill="#555555" font-family="'DroidSans'" font-size="3.5">PD6</text>
	
		<line id="connector6_1_" fill="#555555" stroke="#787878" stroke-width="0.7" stroke-linecap="round" x1="0.8" y1="37.7" x2="8" y2="37.7"/>
	<text transform="matrix(1 0 0 1 3.7322 36.7636)" fill="#555555" font-family="'DroidSans'" font-size="2.5">17</text>
	<text transform="matrix(1 0 0 1 9.2224 35.1743)" fill="#555555" font-family="'DroidSans'" font-size="3.5">PC7</text>
	
		<line id="connector5_1_" fill="#555555" stroke="#787878" stroke-width="0.7" stroke-linecap="round" x1="0.8" y1="43.5" x2="8" y2="43.5"/>
	<text transform="matrix(1 0 0 1 3.7322 42.5659)" fill="#555555" font-family="'DroidSans'" font-size="2.5">16</text>
	<text transform="matrix(1 0 0 1 9.2224 40.9766)" fill="#555555" font-family="'DroidSans'" font-size="3.5">PC6</text>
	
		<line id="connector4_1_" fill="#555555" stroke="#787878" stroke-width="0.7" stroke-linecap="round" x1="0.8" y1="49.3" x2="8" y2="49.3"/>
	<text transform="matrix(1 0 0 1 3.7322 48.3672)" fill="#555555" font-family="'DroidSans'" font-size="2.5">15</text>
	<text transform="matrix(1 0 0 1 9.2224 46.7774)" fill="#555555" font-family="'DroidSans'" font-size="3.5">PC5</text>
	
		<line id="connector3_1_" fill="#555555" stroke="#787878" stroke-width="0.7" stroke-linecap="round" x1="0.8" y1="55.1" x2="8" y2="55.1"/>
	<text transform="matrix(1 0 0 1 3.7322 54.1694)" fill="#555555" font-family="'DroidSans'" font-size="2.5">14</text>
	<text transform="matrix(1 0 0 1 9.2224 52.5791)" fill="#555555" font-family="'DroidSans'" font-size="3.5">PC4</text>
	
		<line id="connector2_1_" fill="#555555" stroke="#787878" stroke-width="0.7" stroke-linecap="round" x1="0.8" y1="60.9" x2="8" y2="60.9"/>
	<text transform="matrix(1 0 0 1 3.7322 59.9717)" fill="#555555" font-family="'DroidSans'" font-size="2.5">13</text>
	<text transform="matrix(1 0 0 1 9.2224 58.3813)" fill="#555555" font-family="'DroidSans'" font-size="3.5">PB3</text>
	
		<line id="connector1_1_" fill="#555555" stroke="#787878" stroke-width="0.7" stroke-linecap="round" x1="0.8" y1="66.7" x2="8" y2="66.7"/>
	<text transform="matrix(1 0 0 1 3.7322 65.7734)" fill="#555555" font-family="'DroidSans'" font-size="2.5">12</text>
	<text transform="matrix(1 0 0 1 9.2224 64.1836)" fill="#555555" font-family="'DroidSans'" font-size="3.5">PF3</text>
	
		<line id="connector0_1_" fill="#555555" stroke="#787878" stroke-width="0.7" stroke-linecap="round" x1="0.8" y1="72.5" x2="8" y2="72.5"/>
	<text transform="matrix(1 0 0 1 3.7322 71.5761)" fill="#555555" font-family="'DroidSans'" font-size="2.5">11</text>
	<text transform="matrix(1 0 0 1 9.2224 69.9853)" fill="#555555" font-family="'DroidSans'" font-size="3.5">PF2</text>
</g>
</svg>
